<svg width="67" height="70" viewBox="0 0 67 70" fill="none" xmlns="http://www.w3.org/2000/svg">
<path d="M46.6667 60.4803H25.983C22.4355 60.4803 19.5332 57.8703 19.5332 54.6802V38.2462C19.5332 35.0561 22.4355 32.4461 25.983 32.4461H46.667C50.2145 32.4461 53.1168 35.0561 53.1168 38.2462V54.6802C53.1168 57.87 50.2142 60.4803 46.6667 60.4803Z" fill="white"/>
<path d="M46.6705 32.4331C50.218 32.4331 53.1203 35.0431 53.1203 38.2332V54.6672C53.1203 57.8573 50.218 60.4672 46.6705 60.4672H25.9868C22.4394 60.4672 19.5371 57.8573 19.5371 54.6672V38.2332C19.5371 35.0431 22.4394 32.4331 25.9868 32.4331H46.6705ZM46.6705 31.5164H25.9868C24.9822 31.5164 24.0056 31.695 23.084 32.047C22.1956 32.3865 21.3972 32.8714 20.7109 33.4887C20.0247 34.1059 19.4852 34.8241 19.1077 35.6228C18.7162 36.4515 18.5176 37.3298 18.5176 38.2332V54.6672C18.5176 55.5706 18.7162 56.4489 19.1077 57.2776C19.4852 58.0765 20.0244 58.7945 20.7109 59.4116C21.3972 60.0288 22.1958 60.5139 23.084 60.8533C24.0056 61.2054 24.9822 61.384 25.9868 61.384H46.6708C47.6755 61.384 48.6521 61.2054 49.5737 60.8533C50.4621 60.5139 51.2605 60.029 51.9468 59.4116C52.633 58.7945 53.1725 58.0763 53.55 57.2776C53.9414 56.4489 54.1401 55.5706 54.1401 54.6672V38.2332C54.1401 37.3298 53.9414 36.4515 53.55 35.6228C53.1725 34.8238 52.6333 34.1059 51.9468 33.4887C51.2605 32.8716 50.4618 32.3865 49.5737 32.047C48.6521 31.695 47.6752 31.5164 46.6705 31.5164Z" fill="#00227B"/>
<path d="M52.6537 50.3128C49.4334 50.6523 46.2235 50.7359 46.2235 50.7359C46.2235 50.7359 44.5888 43.4058 44.1356 37.6579C43.8018 33.399 44.1158 30.0098 46.2235 31.1152C47.1931 31.6239 48.3099 32.5818 49.4744 33.7969C53.8422 38.3559 58.8603 46.5425 59.1356 48.2412C59.3132 49.3337 55.979 49.9603 52.6537 50.3128Z" fill="white"/>
<path d="M45.7978 51.2193L45.7098 50.8251C45.6999 50.7801 44.7003 46.2761 44.0533 41.6125C43.6717 38.863 43.4853 36.5928 43.4987 34.8653C43.5171 32.5058 43.8981 31.1675 44.6976 30.6539C45.0486 30.4283 45.6457 30.2534 46.4963 30.6994C49.3001 32.1705 52.8587 36.8565 54.7305 39.5189C55.9789 41.2948 57.174 43.1616 58.0959 44.7752C58.7455 45.912 59.545 47.4233 59.6659 48.1675C59.7011 48.3836 59.6776 48.7113 59.3659 49.045C58.9153 49.5275 57.9794 49.9052 56.4202 50.2331C55.2769 50.4736 53.808 50.6805 52.0539 50.8482C49.0843 51.1318 46.2726 51.207 46.2446 51.2078L45.7978 51.2193ZM45.4989 31.376C45.3967 31.376 45.3431 31.4106 45.3137 31.4292C44.9679 31.6513 43.9316 33.0328 45.1043 41.4897C45.6355 45.3197 46.4066 49.0432 46.6629 50.2402C47.567 50.2075 49.7126 50.1134 51.9479 49.8997C57.1373 49.4033 58.2966 48.7079 58.5544 48.4321C58.6257 48.3558 58.6199 48.3205 58.6173 48.3053C58.4667 47.3793 56.509 43.8322 53.8348 40.0281C50.7376 35.6225 47.8685 32.5223 45.9624 31.5224C45.7462 31.409 45.5991 31.376 45.4989 31.376Z" fill="#00227B"/>
<path d="M29.8414 30.841L29.1895 35.2751L28.8187 37.796L28.0278 43.1783C28.0278 43.1783 26.5825 44.0623 24.1783 44.7627C23.28 45.0249 22.2454 45.2594 21.1036 45.4131C19.2371 45.6656 17.079 45.6978 14.7409 45.2677C8.72538 44.1597 5.11527 40.1416 3.55226 38.1213C0.531411 34.2219 0.0665302 33.1676 0.906287 31.526C1.54739 30.2679 2.64581 30.0382 2.64581 30.0382C2.64581 30.0382 2.59163 29.0329 3.47653 28.6753C6.12863 27.6043 9.54504 30.4646 9.54504 30.4646C9.54504 30.4646 9.67233 27.3887 11.503 28.0988C12.7643 28.5884 13.0503 31.9372 13.0503 31.9372C13.0503 31.9372 14.7432 33.8934 17.4326 34.153C18.838 34.2886 20.7829 33.9219 22.7143 33.3894C22.7368 33.3834 22.7595 33.3776 22.7819 33.3703C23.8113 33.0845 24.834 32.7532 25.7704 32.4255C26.1905 32.2791 26.593 32.1324 26.9705 31.992C28.6582 31.3628 29.8414 30.841 29.8414 30.841Z" fill="white"/>
<path opacity="0.35" d="M3.54446 38.125C5.10892 40.1448 8.71844 44.1637 14.7333 45.2714C18.501 45.9645 21.8027 45.4553 24.1717 44.7656C26.5759 44.066 28.0209 43.1814 28.0209 43.1814L28.1269 38.9341C28.1269 38.9341 26.4888 37.5144 24.9631 38.0933C23.1297 38.7887 23.7173 41.1527 21.099 41.8102C13.8202 43.638 7.90723 40.2985 6.0046 38.8325C3.36503 36.7988 2.67645 35.5179 2.30507 34.9893C1.53638 33.8957 0.942759 33.0363 0.608079 32.2667C0.266992 33.5686 0.995189 34.8329 3.54446 38.125Z" fill="#00227B"/>
<path d="M18.3627 46.0817C17.1067 46.0817 15.856 45.9683 14.6268 45.7418C11.9228 45.2438 9.40007 44.1227 7.12897 42.4091C5.66733 41.3064 4.31493 39.9577 3.10961 38.4012C1.63866 36.5014 0.703651 35.1964 0.277219 34.1482C-0.131445 33.1436 -0.0909576 32.3285 0.41645 31.3342C0.915993 30.355 1.67128 29.9048 2.12771 29.7117C2.20228 29.2083 2.49269 28.5553 3.25176 28.2488C5.40839 27.3776 7.89707 28.7258 9.12889 29.5556C9.14083 29.4993 9.15423 29.4417 9.16851 29.3833C9.37269 28.5597 9.72514 28.0007 10.2159 27.7223C10.5174 27.5513 11.0205 27.4033 11.7064 27.6697C12.4023 27.94 12.91 28.736 13.2589 30.1031C13.4375 30.8035 13.5234 31.4609 13.5557 31.7522C13.9303 32.1336 15.3943 33.4852 17.4822 33.6866C21.2936 34.0539 29.5175 30.4569 29.6003 30.4205C29.7756 30.3433 29.9842 30.359 30.1426 30.4616C30.3011 30.5641 30.3841 30.7369 30.3588 30.9109L28.5464 43.2476C28.5266 43.3822 28.4442 43.5027 28.3192 43.5789C28.2586 43.6161 26.8051 44.497 24.3884 45.2071C22.9728 45.6231 21.5164 45.8939 20.06 46.0126C19.4941 46.0587 18.9278 46.0817 18.3627 46.0817ZM2.76095 30.5085C2.6925 30.5253 1.88362 30.7432 1.37942 31.7313C0.700447 33.0619 0.86735 33.8375 3.97908 37.8564C6.90469 41.6346 10.6599 44.0384 14.8391 44.8079C18.647 45.5092 21.9545 44.9193 24.0587 44.3011C25.8425 43.777 27.0725 43.1517 27.5275 42.9021L29.1808 31.6493C28.3172 32.0039 26.9045 32.5611 25.319 33.0954C21.7899 34.2846 19.1148 34.8022 17.3692 34.634C14.4893 34.3567 12.6997 32.324 12.6248 32.2376C12.561 32.1637 12.5226 32.0747 12.5147 31.9814C12.5141 31.9735 12.4422 31.1602 12.2231 30.3058C11.8541 28.8654 11.4125 28.5933 11.2861 28.5443C10.9698 28.4214 10.8332 28.4987 10.7816 28.5278C10.3362 28.7798 10.0951 29.827 10.0659 30.4899C10.0578 30.6759 9.92962 30.8409 9.73825 30.9119C9.54659 30.9829 9.32696 30.9473 9.17521 30.8202C9.14375 30.794 5.98425 28.1893 3.68576 29.1179C3.15622 29.3319 3.16583 29.9773 3.16729 30.0237C3.18302 30.2589 3.01699 30.4598 2.76095 30.5085Z" fill="#00227B"/>
<path d="M9.96489 30.4769C9.97712 30.6108 9.95498 30.7326 9.92527 30.8381C9.91042 30.8926 9.89207 30.9398 9.87343 30.9882C9.85449 31.0335 9.83381 31.0796 9.81342 31.1208C9.72983 31.29 9.63953 31.4301 9.5536 31.5661C9.46738 31.7012 9.38437 31.8298 9.30718 31.9587L9.25067 32.0556C9.2329 32.0881 9.21397 32.1203 9.19679 32.1531L9.14669 32.2515L9.09892 32.3511L9.05551 32.4522L9.01532 32.5549C9.00163 32.5892 8.99143 32.6243 8.9792 32.6591C8.96638 32.694 8.95677 32.7296 8.94629 32.7649C8.90609 32.9074 8.87143 33.0541 8.85133 33.2053C8.82948 33.3561 8.8155 33.5109 8.81142 33.6684C8.80705 33.7475 8.8088 33.8266 8.80793 33.9073C8.80647 33.9476 8.81026 33.9874 8.81055 34.028C8.81142 34.0686 8.81288 34.1092 8.81259 34.1503V34.1532C8.81259 34.1849 8.78404 34.2106 8.74851 34.2106C8.72375 34.2106 8.70249 34.198 8.692 34.1794C8.60695 34.0311 8.53005 33.8771 8.47063 33.7163C8.408 33.556 8.36315 33.3889 8.33023 33.2178C8.26557 32.8757 8.26702 32.5137 8.3381 32.1601L8.36752 32.0281C8.37888 31.9846 8.3914 31.9414 8.40334 31.8977C8.41616 31.8545 8.43043 31.812 8.44383 31.7688C8.45781 31.7261 8.47442 31.6845 8.48985 31.6423C8.55364 31.4746 8.63258 31.3154 8.71385 31.1661C8.79482 31.017 8.88104 30.8764 8.95095 30.7543C9.02464 30.6307 9.06629 30.5304 9.09076 30.4761L9.14202 30.3627C9.23116 30.166 9.48078 30.0714 9.69953 30.1516C9.8542 30.2087 9.95178 30.3373 9.96489 30.4769Z" fill="#00227B"/>
<path d="M14.1555 45.609C14.0218 45.609 13.8928 45.5425 13.8293 45.4275C13.7396 45.2656 13.813 45.0692 13.993 44.9885C15.4619 44.3313 16.4657 42.2803 16.895 39.0572C17.2279 36.5593 17.0896 34.2362 17.0881 34.2132C17.0771 34.0327 17.2306 33.8781 17.4313 33.8679C17.6311 33.8577 17.8038 33.996 17.8152 34.1765C17.8166 34.2001 17.9585 36.5727 17.6191 39.1263C17.4184 40.6374 17.0907 41.9196 16.6451 42.9373C16.0684 44.2543 15.2851 45.1417 14.3175 45.5747C14.2653 45.598 14.21 45.609 14.1555 45.609Z" fill="#00227B"/>
<g opacity="0.35">
<g opacity="0.35">
<g opacity="0.35">
<g opacity="0.35">
<path opacity="0.35" d="M61.1455 66.6731V66.6054C60.5632 66.6282 61.1455 66.6731 61.1455 66.6731Z" fill="#00227B"/>
</g>
</g>
</g>
</g>
<path d="M53.7883 58.6326H18.8086C18.8086 58.6326 19.0218 53.204 21.0911 45.419C21.9203 42.2967 23.049 38.7954 24.5817 35.113C24.9499 34.229 25.3423 33.3345 25.7582 32.4313C26.9213 29.9118 28.2778 27.3314 29.8597 24.7511H42.7375C44.045 26.8845 45.1988 29.017 46.2162 31.1172C46.8745 32.4753 47.476 33.8191 48.0245 35.139C50.4182 40.8929 51.8239 46.2037 52.6465 50.3148C53.661 55.3865 53.7883 58.6326 53.7883 58.6326Z" fill="white"/>
<path d="M48.9924 39.1875C49.6685 39.8662 49.9776 40.6562 50.263 41.4496C50.4063 41.8465 50.5476 42.2441 50.6824 42.6435C50.75 42.8431 50.8193 43.0425 50.8796 43.2439C50.9417 43.4448 51.002 43.6465 51.0626 43.8479L51.2397 44.4533C51.2979 44.6552 51.3568 44.8569 51.4115 45.0599L51.7334 46.2779C51.7858 46.4812 51.8432 46.6831 51.8945 46.8867L52.048 47.497L52.2055 48.1065C52.2585 48.3095 52.3133 48.5122 52.3628 48.716L52.6663 49.9374C52.7185 50.1407 52.7633 50.3455 52.8114 50.5496L52.9535 51.1623L53.0246 51.4685L53.0601 51.6217L53.0934 51.7752L53.2265 52.3894C53.2707 52.5943 53.3165 52.7988 53.3645 53.0029C53.4106 53.2075 53.4569 53.412 53.5052 53.6163C53.708 54.4318 53.8559 55.2576 53.9174 56.0943C53.9252 56.1988 53.9343 56.303 53.9398 56.4081L53.9547 56.7227C53.9622 56.9327 53.9686 57.1425 53.9651 57.3539C53.9637 57.5648 53.9585 57.7759 53.9433 57.9878C53.9296 58.1997 53.9101 58.4116 53.8746 58.6251C53.8679 58.6662 53.825 58.6945 53.7793 58.6885C53.7481 58.6843 53.7237 58.6652 53.7132 58.6406L53.7129 58.6395C53.5457 58.2401 53.4091 57.8388 53.2801 57.4375C53.2166 57.2368 53.1554 57.0357 53.0963 56.8348L53.0112 56.5327C52.9844 56.4319 52.9567 56.3313 52.9288 56.2305C52.8204 55.8274 52.7249 55.4232 52.639 55.0172C52.5976 54.8139 52.56 54.6101 52.5257 54.4058C52.4887 54.2018 52.4546 53.9975 52.4193 53.7931C52.385 53.5886 52.3488 53.3845 52.3121 53.1805C52.2731 52.9767 52.2297 52.7737 52.1857 52.5707L52.0538 51.9617L52.0209 51.8095L51.9856 51.6576L51.9151 51.354L51.7742 50.7466C51.7264 50.5443 51.6818 50.3413 51.6303 50.1397L51.3291 48.9285C51.2807 48.7262 51.2242 48.5256 51.1709 48.3244L51.0063 47.7217L50.8377 47.12C50.8103 47.0197 50.7791 46.9199 50.7494 46.8201L50.6589 46.5207L50.295 45.3237C50.1692 44.9258 50.0405 44.5287 49.9178 44.13C49.8567 43.9307 49.7955 43.7314 49.7361 43.5315L49.6918 43.3817L49.6449 43.2324L49.5526 42.9335C49.4294 42.5351 49.3126 42.1349 49.1975 41.7341L49.113 41.4329C49.0848 41.3325 49.0536 41.233 49.0239 41.133C48.9648 40.9328 48.9153 40.7301 48.878 40.5239C48.841 40.3175 48.8151 40.108 48.8052 39.8937C48.7999 39.7866 48.7993 39.6782 48.8037 39.5681C48.8084 39.4581 48.8162 39.3468 48.8378 39.2318L48.8387 39.2274C48.8468 39.1839 48.8925 39.1545 48.9409 39.1619C48.9616 39.1653 48.9796 39.1747 48.9924 39.1875Z" fill="#00227B"/>
<path d="M18.7311 58.6248C18.6772 58.5169 18.6402 58.4097 18.6055 58.3021C18.5709 58.1942 18.5449 58.0876 18.5219 57.9802C18.4753 57.7654 18.4503 57.5519 18.4363 57.3389C18.4299 57.2323 18.4255 57.126 18.4258 57.0199C18.4261 56.9138 18.4307 56.8083 18.4363 56.7027L18.4561 56.386C18.4622 56.2805 18.4695 56.1749 18.4791 56.0696C18.5155 55.6484 18.551 55.2267 18.6058 54.8076C18.6306 54.5975 18.6582 54.388 18.6856 54.1781C18.699 54.0734 18.7171 53.9691 18.7328 53.8643L18.782 53.5508L18.8849 52.9245C18.921 52.716 18.9629 52.5086 19.0022 52.3006C19.0826 51.8849 19.1584 51.4687 19.2501 51.0551C19.3392 50.641 19.4208 50.2258 19.512 49.8124C19.6046 49.3994 19.6949 48.9858 19.784 48.5719C19.8067 48.4684 19.8271 48.3647 19.8519 48.2618L19.9253 47.9527L20.0718 47.3345L20.2183 46.7163C20.2308 46.6647 20.2422 46.6131 20.2553 46.5618L20.2955 46.408L20.3759 46.1003L20.6972 44.8694C20.7231 44.7668 20.7522 44.6646 20.7811 44.5624C20.809 44.46 20.8376 44.3579 20.8644 44.2554C20.9186 44.0504 20.9722 43.8453 21.0237 43.6396C21.0764 43.4343 21.128 43.2284 21.1825 43.0233C21.2349 42.8177 21.3007 42.6155 21.3665 42.413C21.4338 42.211 21.5052 42.0101 21.5801 41.81C21.6552 41.6101 21.735 41.4113 21.8157 41.2131L21.9404 40.9165C21.9613 40.8673 21.9846 40.8186 22.0074 40.7696C22.0304 40.7209 22.0525 40.6719 22.0764 40.6232C22.1705 40.4286 22.2657 40.2347 22.3671 40.0427C22.4673 39.8502 22.5719 39.6592 22.6817 39.4701C22.7915 39.281 22.9054 39.0932 23.0318 38.9093C23.056 38.874 23.1075 38.863 23.1468 38.885C23.1736 38.8999 23.1879 38.9263 23.1865 38.9531V38.9541C23.134 39.8185 22.954 40.641 22.7763 41.4632C22.7306 41.6683 22.684 41.8731 22.6327 42.0769C22.5812 42.2804 22.5258 42.4829 22.467 42.6844C22.3441 43.0862 22.2206 43.4877 22.0918 43.8885C22.0275 44.0889 21.9648 44.2895 21.9028 44.4904C21.8713 44.5907 21.8419 44.6916 21.8119 44.7922C21.7825 44.893 21.7522 44.9936 21.7271 45.0955L21.4094 46.3132L21.3298 46.6176L21.2902 46.7698C21.2771 46.8206 21.2658 46.8717 21.2535 46.9225L21.1085 47.5341L20.9634 48.1457L20.8909 48.4517C20.8667 48.5536 20.8463 48.6563 20.8239 48.7584C20.4516 50.3926 20.2014 52.0465 19.9582 53.697L19.8638 54.3157C19.8344 54.5221 19.805 54.7285 19.773 54.9346L19.5854 56.1718C19.5513 56.3779 19.5239 56.584 19.493 56.7902C19.477 56.8931 19.4601 56.9963 19.4389 57.099C19.4179 57.2017 19.3972 57.3044 19.3716 57.4068C19.3206 57.6116 19.2574 57.8159 19.1825 58.0197C19.1453 58.1216 19.1007 58.2238 19.055 58.3254C19.0081 58.427 18.9571 58.5292 18.8942 58.6306L18.8936 58.6316C18.8691 58.6709 18.8141 58.685 18.7704 58.663C18.752 58.6536 18.7389 58.64 18.7311 58.6248Z" fill="#00227B"/>
<path d="M28.8817 51.7861C26.8867 52.5125 23.7991 52.3605 21.6944 52.1313C20.432 51.9941 19.5456 50.9463 19.7317 49.815C19.9015 48.7827 20.912 48.032 22.071 48.0807C24.0397 48.1638 26.993 48.2025 28.8633 47.8295" fill="white"/>
<g opacity="0.35">
<g opacity="0.35">
<g opacity="0.35">
<g opacity="0.35">
<path opacity="0.35" d="M28.882 51.7732C26.8864 52.5006 23.7989 52.3471 21.6941 52.1195C20.4317 51.982 19.5456 50.9337 19.7317 49.8032C19.7687 49.5724 19.8494 49.3558 19.9639 49.158C20.2962 49.7288 20.9257 50.1494 21.6941 50.2333C23.7951 50.4625 26.8774 50.6144 28.8732 49.8917L28.882 51.7732Z" fill="#00227B"/>
</g>
</g>
</g>
</g>
<path d="M24.9262 52.7878C23.7718 52.7878 22.6242 52.7022 21.6414 52.5953C20.8888 52.5133 20.2209 52.1696 19.7606 51.6274C19.2996 51.0842 19.107 50.4126 19.2183 49.7362C19.3196 49.1199 19.6698 48.5622 20.204 48.1659C20.7388 47.7691 21.4145 47.5666 22.1066 47.596C25.0069 47.718 27.3694 47.6326 28.7591 47.3555C29.0382 47.3 29.7314 47.2979 30.1407 48.481C30.5563 49.6831 30.5103 51.7023 29.0915 52.2189C27.9214 52.6445 26.4184 52.7878 24.9262 52.7878ZM21.9744 48.5457C21.1198 48.5457 20.3933 49.1055 20.2669 49.8753C20.1979 50.295 20.3173 50.712 20.6033 51.0491C20.8885 51.3851 21.3024 51.5981 21.769 51.6489C24.7788 51.9763 27.2384 51.865 28.6939 51.3351C29.1261 51.1777 29.2502 50.5477 29.2837 50.2842C29.4002 49.3622 29.0883 48.5104 28.8928 48.3042C26.996 48.6628 24.1377 48.6353 22.0574 48.5476C22.0294 48.5463 22.0017 48.5457 21.9744 48.5457Z" fill="#00227B"/>
<path d="M44.1445 51.7861C46.1395 52.5125 49.227 52.3605 51.3318 52.1313C52.5942 51.9941 53.4806 50.9463 53.2944 49.815C53.1246 48.7827 52.1142 48.032 50.9552 48.0807C48.9864 48.1638 46.0332 48.2025 44.1629 47.8295" fill="white"/>
<g opacity="0.35">
<g opacity="0.35">
<g opacity="0.35">
<g opacity="0.35">
<path opacity="0.35" d="M51.348 52.1292C49.2433 52.3568 46.156 52.5103 44.1602 51.7829L44.1689 49.8838C46.1644 50.6065 49.2467 50.4546 51.348 50.2254C52.1129 50.1432 52.7389 49.7256 53.073 49.158C53.1907 49.3574 53.2734 49.5771 53.3121 49.8126C53.4968 50.9434 52.6107 51.9917 51.348 52.1292Z" fill="#00227B"/>
</g>
</g>
</g>
</g>
<path d="M48.1164 52.7873C46.6241 52.7873 45.1214 52.644 43.9511 52.2181C42.5323 51.7016 42.4862 49.6823 42.9019 48.4803C43.3108 47.2974 44.0044 47.2992 44.2834 47.3547C45.6734 47.6321 48.036 47.7175 50.936 47.5952C51.6286 47.5661 52.3038 47.7686 52.8386 48.1652C53.3728 48.5615 53.7229 49.1192 53.8243 49.7355C53.9355 50.4118 53.7427 51.0834 53.2819 51.6267C52.8217 52.1689 52.1538 52.5126 51.4011 52.5945C50.4183 52.7014 49.2704 52.7873 48.1164 52.7873ZM44.15 48.3037C43.9546 48.5099 43.6426 49.3617 43.7591 50.2837C43.7923 50.5472 43.9164 51.1772 44.349 51.3346C45.8045 51.8645 48.264 51.9761 51.2738 51.6484C51.7402 51.5976 52.1544 51.3847 52.4395 51.0486C52.7256 50.7115 52.845 50.2947 52.776 49.8748C52.6455 49.0804 51.8759 48.5099 50.9858 48.5471C48.9049 48.6348 46.0468 48.6621 44.15 48.3037Z" fill="#00227B"/>
<path d="M44.9226 46.5072V52.8476C44.9226 54.024 43.8518 54.9869 42.5437 54.9869H29.5588C28.2524 54.9869 27.1816 54.024 27.1816 52.8476V46.5072C27.1816 45.3308 28.2524 44.3695 29.5588 44.3695H42.5437C43.3138 44.3695 44.0012 44.7032 44.4373 45.2169C44.7414 45.5757 44.9226 46.0234 44.9226 46.5072Z" fill="white"/>
<g opacity="0.35">
<g opacity="0.35">
<g opacity="0.35">
<g opacity="0.35">
<path opacity="0.35" d="M44.915 46.5089V52.8493C44.915 54.0257 43.8449 54.9881 42.5368 54.9881H29.5521C28.244 54.9881 27.1738 54.0257 27.1738 52.8493V50.4777C29.1239 52.2657 32.9592 53.3881 36.4767 53.4049C37.6069 53.4104 38.5186 52.6065 38.5992 51.5926C38.6001 51.5823 38.601 51.5721 38.6019 51.5622C38.6884 50.6726 39.5031 49.9523 40.4934 49.8881C41.6213 49.815 42.5735 50.5642 42.685 51.5378C44.3875 49.6477 43.8889 46.3624 44.4304 45.2186C44.7347 45.5779 44.915 46.0248 44.915 46.5089Z" fill="#00227B"/>
</g>
</g>
</g>
</g>
<path d="M42.5471 55.4649H29.5618C27.9586 55.4649 26.6543 54.2919 26.6543 52.8502V46.509C26.6543 45.0673 27.9586 43.8943 29.5618 43.8943H42.5471C44.1502 43.8943 45.4546 45.0673 45.4546 46.509V52.8502C45.4546 54.2919 44.1502 55.4649 42.5471 55.4649ZM29.5618 44.8472C28.5429 44.8472 27.714 45.5927 27.714 46.509V52.8502C27.714 53.7665 28.5429 54.5119 29.5618 54.5119H42.5471C43.5659 54.5119 44.3949 53.7665 44.3949 52.8502V46.509C44.3949 45.5927 43.5659 44.8472 42.5471 44.8472H29.5618Z" fill="#00227B"/>
<path d="M40.66 51.5198C41.7925 51.5198 42.7106 50.6942 42.7106 49.6758C42.7106 48.6574 41.7925 47.8317 40.66 47.8317C39.5275 47.8317 38.6094 48.6574 38.6094 49.6758C38.6094 50.6942 39.5275 51.5198 40.66 51.5198Z" fill="#22A7F0"/>
<g opacity="0.7">
<g opacity="0.7">
<g opacity="0.7">
<g opacity="0.7">
<path opacity="0.7" d="M42.6953 49.6731C42.6953 49.7993 42.6819 49.9219 42.6554 50.0416C42.466 49.1984 41.6376 48.564 40.6452 48.564C39.6514 48.564 38.823 49.1984 38.6337 50.0416C38.6071 49.9219 38.5938 49.7996 38.5938 49.6731C38.5938 48.6541 39.5122 47.8295 40.6452 47.8295C41.7766 47.8295 42.6953 48.6541 42.6953 49.6731Z" fill="white"/>
</g>
</g>
</g>
</g>
<g opacity="0.35">
<g opacity="0.35">
<g opacity="0.35">
<g opacity="0.35">
<path opacity="0.35" d="M42.6899 49.6762C42.6899 50.6944 41.7721 51.5198 40.6399 51.5198C39.5077 51.5198 38.5898 50.6944 38.5898 49.6762C38.5898 49.4408 38.6391 49.216 38.7305 49.0091C39.0259 49.6969 39.7698 50.1839 40.6402 50.1839C41.5105 50.1839 42.2541 49.6969 42.5498 49.0091C42.6407 49.216 42.6899 49.4405 42.6899 49.6762Z" fill="#00227B"/>
</g>
</g>
</g>
</g>
<path d="M40.6452 51.8788C39.2954 51.8788 38.1973 50.8913 38.1973 49.6775C38.1973 48.4637 39.2954 47.4762 40.6452 47.4762C41.995 47.4762 43.0931 48.4637 43.0931 49.6775C43.0931 50.8913 41.995 51.8788 40.6452 51.8788ZM40.6452 48.191C39.7338 48.191 38.9922 48.8579 38.9922 49.6775C38.9922 50.4971 39.7338 51.164 40.6452 51.164C41.5566 51.164 42.2982 50.4971 42.2982 49.6775C42.2982 48.8579 41.5566 48.191 40.6452 48.191Z" fill="#00227B"/>
<path d="M34.8437 55.3489C34.624 55.3489 34.4464 55.1889 34.4464 54.9916V50.6487L31.8496 48.8906V44.374C31.8496 44.1765 32.0276 44.0167 32.2469 44.0167C32.4662 44.0167 32.6442 44.1768 32.6442 44.374V48.5338L35.241 50.292V54.9916C35.241 55.1889 35.063 55.3489 34.8437 55.3489Z" fill="#00227B"/>
<path d="M36.2993 58.414C38.5963 58.414 40.805 57.6476 42.5303 56.2837C44.9199 54.3946 48.9428 52.1417 53.3831 53.5868C55.1648 54.1662 56.3789 55.2294 57.2073 56.4057C59.3406 51.9607 63.8158 51.6943 65.7528 54.2136C65.7528 54.2136 62.4969 68.1822 61.4358 68.4931C59.9156 68.9384 56.2629 68.4701 56.2629 68.4701C56.2629 68.4701 43.5556 66.9231 36.2993 66.9231C29.0429 66.9231 16.3356 68.4701 16.3356 68.4701C16.3356 68.4701 12.6829 68.9381 11.1627 68.4931C10.1016 68.1822 6.8457 54.2136 6.8457 54.2136C8.78242 51.694 13.2579 51.9607 15.3912 56.4057C16.2194 55.2291 17.4337 54.1662 19.2154 53.5868C23.6557 52.1417 27.6786 54.3946 30.0682 56.2837C31.7935 57.6473 34.0022 58.414 36.2993 58.414Z" fill="white"/>
<g opacity="0.35">
<path d="M65.7583 54.2106C65.7583 54.2106 62.5021 68.1797 61.441 68.4906C59.9214 68.9362 56.2679 68.4681 56.2679 68.4681C56.2679 68.4681 43.5611 66.9206 36.3042 66.9206C29.0487 66.9206 16.3405 68.4681 16.3405 68.4681C16.3405 68.4681 12.6882 68.9362 11.1689 68.4906C10.1078 68.1797 6.85156 54.2106 6.85156 54.2106C7.1708 53.7959 7.55762 53.4565 7.99221 53.1992C9.03615 57.2949 10.517 62.6426 11.1689 62.8333C12.6885 63.2775 16.3405 62.8094 16.3405 62.8094C16.3405 62.8094 29.0487 59.7144 36.3042 59.7144C43.5611 59.7144 56.2679 62.8094 56.2679 62.8094C56.2679 62.8094 59.9214 63.2775 61.441 62.8333C62.0929 62.6426 63.5737 57.2949 64.6177 53.1992C65.0523 53.4567 65.4391 53.7962 65.7583 54.2106Z" fill="#00227B"/>
</g>
<path d="M13.1255 69.158C12.3285 69.158 11.5499 69.1043 11.0023 68.944C10.6289 68.8345 10.3149 68.4623 9.72565 66.8115C9.38078 65.8453 8.96687 64.4997 8.49587 62.8123C7.64767 59.7743 6.82102 56.3671 6.50498 55.0432C6.33954 54.3501 6.59207 53.6332 7.16444 53.1727C8.26314 52.2882 9.73585 51.9476 11.2045 52.2384C12.1302 52.4218 13.0308 52.8563 13.8091 53.4952C14.4537 54.0245 15.0141 54.6857 15.4813 55.4676C16.4294 54.3795 17.6231 53.5971 19.0393 53.1363C20.6439 52.614 22.3229 52.5103 24.0298 52.828C25.4078 53.0847 26.8092 53.6167 28.1945 54.4099C28.4415 54.5513 28.514 54.8457 28.357 55.0678C28.2 55.29 27.8723 55.3552 27.6253 55.214C24.774 53.5816 22.0065 53.1843 19.3999 54.0327C17.9298 54.511 16.7329 55.3942 15.8431 56.6586C15.7379 56.8079 15.5492 56.8925 15.3537 56.8789C15.158 56.865 14.9867 56.755 14.9087 56.5926C14.0174 54.7352 12.5843 53.4876 10.9767 53.1696C9.84478 52.9456 8.71288 53.2057 7.87137 53.8834C7.58184 54.1162 7.45542 54.4842 7.54135 54.8439C7.83962 56.0933 8.62141 59.3173 9.43583 62.2627C9.88352 63.8818 10.2802 65.1991 10.6152 66.1774C11.0842 67.5476 11.3291 67.9494 11.4162 68.0615C12.6134 68.3633 15.306 68.1197 16.2649 67.9968C16.266 67.9966 16.2672 67.9966 16.2684 67.9963C16.3956 67.9808 29.0945 66.4448 36.3031 66.4448C43.5119 66.4448 56.2105 67.9808 56.3378 67.9963C56.339 67.9966 56.3405 67.9966 56.3416 67.9968C57.3008 68.1197 59.9931 68.3633 61.1902 68.0615C61.2759 67.9515 61.5141 67.5612 61.9674 66.2471C62.2945 65.2994 62.6816 64.0222 63.1185 62.4511C63.8974 59.6497 64.6439 56.6015 65.0197 55.0341C65.1429 54.5204 64.9288 53.9939 64.4744 53.6927C63.6073 53.1177 62.5325 52.9462 61.4486 53.2097C59.8955 53.5871 58.5635 54.7886 57.6978 56.5928C57.62 56.755 57.4488 56.8653 57.2527 56.8791C57.0567 56.893 56.8685 56.8082 56.7634 56.6589C55.8735 55.3947 54.677 54.5112 53.2069 54.0329C50.5772 53.1772 47.7862 53.5884 44.9104 55.2551C44.6642 55.3976 44.3366 55.334 44.1778 55.1126C44.0194 54.8916 44.0901 54.5966 44.3363 54.4539C45.73 53.646 47.1404 53.1023 48.5281 52.8374C50.2519 52.5085 51.9474 52.6093 53.5675 53.1366C54.9837 53.5973 56.1773 54.38 57.1257 55.4681C58.121 53.8043 59.5349 52.6874 61.1722 52.2895C62.5543 51.9534 63.9871 52.1852 65.1036 52.9255C65.8929 53.4488 66.2666 54.3551 66.0561 55.2347C65.6582 56.8954 64.8694 60.1128 64.0579 63.0011C63.5979 64.639 63.1937 65.944 62.8566 66.8794C62.2817 68.4754 61.9729 68.8366 61.6039 68.9445C59.9925 69.4165 56.3786 68.9641 56.1945 68.9406C55.9953 68.9165 43.4196 67.398 36.3034 67.398C29.186 67.398 16.6115 68.9165 16.4122 68.9406C16.2899 68.9555 14.6736 69.158 13.1255 69.158Z" fill="#00227B"/>
<path d="M60.502 68.4823H61.4458C62.5538 68.4823 63.5584 67.8979 64.0096 66.988C65.4223 64.1431 67.9981 57.8919 65.5854 54.0773C65.5152 53.966 65.4401 53.8589 65.3605 53.7562C65.3605 53.7562 63.0443 51.8616 61.3802 54.5418C59.826 57.0456 56.5633 67.7513 60.502 68.4823Z" fill="#AFAFB2"/>
<g opacity="0.7">
<g opacity="0.7">
<g opacity="0.7">
<g opacity="0.7">
<path opacity="0.7" d="M60.5137 56.3275C60.5553 56.2676 60.597 56.211 60.6375 56.1583C62.6834 53.4782 65.5318 55.3728 65.5318 55.3728C65.6294 55.4755 65.7223 55.5826 65.808 55.6939C66.0937 56.0612 66.3221 56.4507 66.5006 56.8585C66.3853 55.8566 66.0972 54.9094 65.5711 54.0788C65.5009 53.9675 65.4258 53.8604 65.3463 53.7577C65.3463 53.7577 63.03 51.8631 61.366 54.5432C61.1134 54.949 60.8172 55.5687 60.5137 56.3275Z" fill="white"/>
</g>
</g>
</g>
</g>
<path d="M66.5045 57.1458C66.4806 57.1458 66.4564 57.144 66.4319 57.1403L60.6425 56.2712C60.4045 56.2356 60.2437 56.0331 60.2833 55.8188C60.323 55.6048 60.5484 55.4602 60.7861 55.4959L66.5755 56.365C66.8135 56.4006 66.9743 56.6031 66.9347 56.8174C66.8992 57.0099 66.7142 57.1458 66.5045 57.1458Z" fill="#00227B"/>
<path d="M66.4563 59.9673C66.4367 59.9673 66.4172 59.9662 66.3974 59.9636L59.6249 59.1448C59.3858 59.116 59.218 58.9182 59.25 58.7032C59.2821 58.4881 59.502 58.3373 59.7414 58.3661L66.5139 59.1849C66.7531 59.2137 66.9208 59.4115 66.8888 59.6265C66.8594 59.824 66.6718 59.9673 66.4563 59.9673Z" fill="#00227B"/>
<path d="M65.8673 62.7182C65.8495 62.7182 65.8318 62.7171 65.8137 62.7153L58.9386 61.9585C58.6992 61.9321 58.5288 61.7362 58.5579 61.5209C58.5873 61.3055 58.8049 61.152 59.0447 61.1785L65.9197 61.9352C66.1592 61.9617 66.3296 62.1576 66.3004 62.3729C66.2733 62.5723 66.0849 62.7182 65.8673 62.7182Z" fill="#00227B"/>
<path d="M64.7657 65.7143C64.7526 65.7143 64.7392 65.7138 64.7258 65.7127L58.5793 65.214C58.339 65.1946 58.1619 65.0034 58.1834 64.7873C58.205 64.5712 58.4176 64.4117 58.6579 64.4314L64.8045 64.9301C65.0448 64.9495 65.2222 65.1407 65.2003 65.3568C65.1799 65.5608 64.9891 65.7143 64.7657 65.7143Z" fill="#00227B"/>
<g opacity="0.35">
<g opacity="0.35">
<g opacity="0.35">
<g opacity="0.35">
<path opacity="0.35" d="M60.5021 68.4833H61.4458C62.5538 68.4833 63.5584 67.8989 64.0096 66.989C64.3749 66.2516 64.8191 65.2872 65.2345 64.1944C64.6679 65.0399 63.5168 65.5761 62.2529 65.5761H61.128C59.5271 65.3267 58.9248 63.9149 58.9009 62.0643C58.3597 65.1879 58.5083 68.1132 60.5021 68.4833Z" fill="#00227B"/>
</g>
</g>
</g>
</g>
<path d="M61.43 68.8767H60.4862C60.4565 68.8767 60.4271 68.8741 60.398 68.8686C59.6351 68.7269 59.0587 68.2821 58.6844 67.5464C57.8021 65.8118 58.2309 62.7898 58.7461 60.5602C59.3759 57.8355 60.3482 55.3744 60.9831 54.3518C61.5669 53.4114 62.3023 52.87 63.1686 52.743C64.4974 52.5481 65.5929 53.4295 65.6389 53.467C65.6631 53.4866 65.6847 53.5089 65.7033 53.5327C65.7904 53.6448 65.8734 53.7635 65.95 53.8847C67.0528 55.6282 67.2867 58.0131 66.6456 60.9728C66.1242 63.3789 65.133 65.6599 64.3931 67.1495C63.8726 68.1988 62.7098 68.8767 61.43 68.8767ZM60.5337 68.0909H61.43C62.365 68.0909 63.2149 67.5959 63.5947 66.8297C64.316 65.3772 65.2818 63.156 65.7875 60.8229C66.3878 58.053 66.1865 55.8493 65.1901 54.2732C65.1359 54.1873 65.0779 54.1035 65.0176 54.0233C64.8539 53.9031 64.1103 53.3986 63.3043 53.5193C62.7165 53.6076 62.1922 54.0165 61.7463 54.735C61.1585 55.6816 60.2072 58.1011 59.6019 60.7203C58.9113 63.7092 58.8676 66.0174 59.4793 67.2197C59.7274 67.7077 60.0726 67.9932 60.5337 68.0909Z" fill="#00227B"/>
<path d="M12.1132 68.4823H11.1695C10.0615 68.4823 9.05685 67.8979 8.60566 66.988C7.19296 64.1431 4.61718 57.8919 7.02984 54.0773C7.10004 53.966 7.17519 53.8589 7.25471 53.7562C7.25471 53.7562 9.57096 51.8616 11.235 54.5418C12.7893 57.0456 16.0516 67.7513 12.1132 68.4823Z" fill="#AFAFB2"/>
<g opacity="0.7">
<g opacity="0.7">
<g opacity="0.7">
<g opacity="0.7">
<path opacity="0.7" d="M12.0768 56.3275C12.0351 56.2676 11.9935 56.211 11.953 56.1583C9.90705 53.4782 7.05864 55.3728 7.05864 55.3728C6.96106 55.4755 6.86814 55.5826 6.7825 55.6939C6.49676 56.0612 6.2684 56.4507 6.08984 56.8585C6.20519 55.8566 6.49326 54.9094 7.01931 54.0788C7.08951 53.9675 7.16466 53.8604 7.24418 53.7577C7.24418 53.7577 9.56043 51.8631 11.2245 54.5432C11.4768 54.949 11.7733 55.5687 12.0768 56.3275Z" fill="white"/>
</g>
</g>
</g>
</g>
<path d="M6.10253 57.1456C5.89281 57.1456 5.70785 57.0094 5.67202 56.8174C5.63241 56.6034 5.7929 56.4009 6.03117 56.365L11.8206 55.4959C12.0586 55.4603 12.2838 55.6046 12.3234 55.8189C12.363 56.0329 12.2025 56.2353 11.9642 56.2712L6.17477 57.1403C6.15059 57.144 6.12642 57.1456 6.10253 57.1456Z" fill="#00227B"/>
<path d="M6.15132 59.9674C5.93577 59.9674 5.74819 59.8241 5.71877 59.6268C5.68673 59.4118 5.8545 59.214 6.09364 59.1852L12.8665 58.3661C13.1059 58.3371 13.3255 58.4882 13.3579 58.7032C13.3899 58.9183 13.2221 59.1161 12.983 59.1449L6.21015 59.964C6.19035 59.9663 6.17083 59.9674 6.15132 59.9674Z" fill="#00227B"/>
<path d="M6.73722 62.7181C6.51963 62.7181 6.33117 62.5722 6.30408 62.3729C6.27466 62.1576 6.44506 61.9616 6.68479 61.9352L13.5598 61.1785C13.7993 61.1523 14.0172 61.3052 14.0466 61.5208C14.076 61.7361 13.9056 61.9321 13.6659 61.9585L6.79081 62.7152C6.77275 62.7173 6.75469 62.7181 6.73722 62.7181Z" fill="#00227B"/>
<path d="M7.82894 65.7143C7.60524 65.7143 7.41474 65.5608 7.39435 65.3567C7.3728 65.1406 7.5499 64.9497 7.7902 64.93L13.9368 64.4313C14.1774 64.4119 14.3894 64.5712 14.4113 64.7873C14.4328 65.0034 14.2557 65.1943 14.0154 65.214L7.86885 65.7127C7.85545 65.7137 7.84205 65.7143 7.82894 65.7143Z" fill="#00227B"/>
<g opacity="0.35">
<g opacity="0.35">
<g opacity="0.35">
<g opacity="0.35">
<path opacity="0.35" d="M12.1035 68.4837H11.1598C10.0517 68.4837 9.04711 67.8993 8.59592 66.9894C8.23066 66.252 7.78646 65.2876 7.37109 64.1948C7.93763 65.0403 9.08877 65.5765 10.3526 65.5765H11.4775C13.0784 65.3271 13.6808 63.9153 13.7047 62.0647C14.2459 65.1883 14.097 68.1136 12.1035 68.4837Z" fill="#00227B"/>
</g>
</g>
</g>
</g>
<path d="M12.1113 68.8765H11.1676C9.88797 68.8765 8.72489 68.1986 8.20467 67.1492C7.46511 65.6599 6.4736 63.3789 5.95221 60.9728C5.3111 58.0131 5.545 55.6282 6.64778 53.8845C6.72439 53.7632 6.8074 53.6448 6.8942 53.5327C6.91285 53.5086 6.9344 53.4866 6.95858 53.467C7.0046 53.4292 8.1001 52.5481 9.42891 52.743C10.2952 52.87 11.0307 53.4114 11.6144 54.3518C12.2494 55.3744 13.2217 57.8355 13.8514 60.5602C14.3667 62.7898 14.7954 65.8118 13.9131 67.5463C13.5389 68.2821 12.9624 68.7269 12.1996 68.8686C12.1704 68.8738 12.1407 68.8765 12.1113 68.8765ZM7.57958 54.0233C7.51929 54.1032 7.46162 54.187 7.40744 54.2727C6.41068 55.849 6.20941 58.0524 6.80973 60.8227C7.31539 63.156 8.28098 65.377 9.00248 66.8294C9.3826 67.5959 10.2323 68.0909 11.1673 68.0909H12.0635C12.5246 67.9932 12.8701 67.7077 13.1182 67.2194C13.7296 66.0172 13.6862 63.709 12.9956 60.72C12.3903 58.1009 11.439 55.6814 10.8512 54.7347C10.4053 54.0162 9.88098 53.6074 9.29318 53.5191C8.48866 53.3986 7.74532 53.9015 7.57958 54.0233Z" fill="#00227B"/>
<path d="M22.7649 68.1297C22.7028 68.1297 22.6399 68.1166 22.5811 68.0888C22.3865 67.9974 22.3114 67.7813 22.4133 67.6063C24.0727 64.7551 24.0972 61.5485 22.4861 58.076C21.2709 55.4569 19.5308 53.6647 19.5133 53.6469C19.3683 53.4989 19.384 53.2731 19.5486 53.1424C19.7132 53.012 19.9642 53.0259 20.1093 53.1738C20.1836 53.2495 21.9426 55.058 23.2103 57.7805C23.9583 59.387 24.3754 60.9767 24.4505 62.5056C24.5449 64.428 24.0963 66.2555 23.1173 67.9377C23.0463 68.06 22.9079 68.1297 22.7649 68.1297Z" fill="#00227B"/>
<path d="M49.9987 68.1295C49.8554 68.1295 49.7173 68.0598 49.6463 67.9378C48.6673 66.2556 48.2187 64.4281 48.3131 62.5057C48.3882 60.9768 48.8054 59.3871 49.5534 57.7806C50.821 55.0581 52.58 53.2494 52.6543 53.174C52.7997 53.026 53.0507 53.0118 53.2153 53.1425C53.3799 53.273 53.3956 53.4988 53.2503 53.6467C53.2328 53.6646 51.4927 55.4567 50.2775 58.0758C48.6664 61.5486 48.6909 64.755 50.3503 67.6062C50.452 67.7811 50.3768 67.997 50.1825 68.0886C50.1237 68.1164 50.0608 68.1295 49.9987 68.1295Z" fill="#00227B"/>
<g opacity="0.35">
<path d="M49.4712 33.7992C49.0127 34.2709 48.5306 34.7188 48.0285 35.1395C46.8363 36.1378 45.5299 36.9872 44.1323 37.6604C41.7715 38.7993 39.1526 39.4379 36.3945 39.4497C33.6999 39.4604 31.1352 38.8719 28.8105 37.8021C27.2883 37.1004 25.8694 36.1938 24.5858 35.1133C23.9473 34.5748 23.3417 33.9946 22.7734 33.3764C23.8028 33.0906 24.8255 32.7593 25.762 32.4316C26.925 29.912 28.2815 27.3317 29.8635 24.7513H42.7412C44.0487 26.8848 45.2025 29.0173 46.2199 31.1175C47.1899 31.6261 48.3067 32.5841 49.4712 33.7992Z" fill="#00227B"/>
</g>
<path d="M55.9609 22.2919C55.7367 22.3136 55.5354 22.1677 55.5112 21.966L54.2543 11.4482C54.2302 11.2465 54.3924 11.0655 54.6167 11.0437C56.9694 10.8164 59.0814 12.3471 59.3343 14.4628L59.7633 18.0495C60.0161 20.1652 58.3136 22.0645 55.9609 22.2919Z" fill="white"/>
<path d="M55.9173 22.3792C55.8016 22.3792 55.6901 22.3441 55.5989 22.2778C55.4929 22.2011 55.4268 22.0919 55.4122 21.9703L54.1553 11.4525C54.1408 11.3309 54.1798 11.2115 54.2651 11.1164C54.3505 11.0213 54.472 10.9616 54.6071 10.9485C57.0116 10.7162 59.1773 12.286 59.4356 14.448L59.8641 18.0347C59.9894 19.0819 59.6535 20.1103 58.9183 20.9304C58.1834 21.7506 57.1372 22.2642 55.9726 22.3768L55.9618 22.2867L55.9726 22.3768C55.9543 22.3784 55.9356 22.3792 55.9173 22.3792ZM55.0787 11.1065C54.9298 11.1065 54.7798 11.1135 54.6287 11.1282C54.5468 11.1361 54.4734 11.1722 54.4219 11.2296C54.3703 11.2872 54.3467 11.3592 54.3554 11.4328L55.6123 21.9507C55.621 22.0243 55.6612 22.0903 55.7253 22.1367C55.7894 22.183 55.8695 22.2042 55.9514 22.1964C57.0626 22.089 58.0605 21.5989 58.7619 20.8165C59.4633 20.0341 59.7837 19.0529 59.6643 18.0536L59.2358 14.4669C59.0051 12.5403 57.187 11.1065 55.0787 11.1065Z" fill="#00227B"/>
<g opacity="0.35">
<g opacity="0.35">
<g opacity="0.35">
<g opacity="0.35">
<path opacity="0.35" d="M59.5775 16.3553L59.779 18.0374C60.0316 20.1523 58.3294 22.0521 55.9764 22.2803C55.7521 22.3023 55.5508 22.1551 55.5267 21.9536L55.1914 19.1577C55.2695 19.279 55.4221 19.3534 55.5867 19.3387L55.864 19.3112C57.7229 19.1318 59.177 17.9072 59.5775 16.3553Z" fill="#00227B"/>
</g>
</g>
</g>
</g>
<path d="M55.9252 22.7938C55.705 22.7938 55.493 22.7268 55.3191 22.6008C55.1175 22.4549 54.9914 22.2469 54.9637 22.0156L53.7068 11.4978C53.6792 11.2665 53.7534 11.0391 53.9157 10.8579C54.0779 10.6766 54.3092 10.5632 54.5664 10.5383C57.2223 10.2816 59.6157 12.0161 59.9012 14.4048L60.3297 17.9915C60.468 19.1484 60.0969 20.2847 59.2849 21.191C58.4728 22.0971 57.317 22.6647 56.0301 22.7888C55.9954 22.792 55.9602 22.7938 55.9252 22.7938ZM55.9112 21.7864H55.911C55.911 21.7864 55.911 21.7864 55.9112 21.7864ZM54.8382 11.5287L56.0618 21.7694C56.9901 21.6457 57.8203 21.2193 58.4128 20.5584C59.037 19.862 59.3221 18.9887 59.2158 18.0991L58.7873 14.5124C58.5733 12.7218 56.8186 11.4092 54.8382 11.5287Z" fill="#00227B"/>
<path d="M16.024 14.7707C16.2483 14.749 16.4496 14.8949 16.4738 15.0966L17.7306 25.6144C17.7548 25.8161 17.5926 25.9971 17.3683 26.0188C15.0156 26.2462 12.9036 24.7154 12.6507 22.5998L12.2223 19.0131C11.9688 16.8974 13.6714 14.9981 16.024 14.7707Z" fill="white"/>
<path d="M16.9003 26.1279C14.6907 26.1281 12.7848 24.6251 12.5437 22.6056L12.1152 19.0189C11.8568 16.8569 13.6025 14.9091 16.0067 14.6768L16.0175 14.7669L16.0067 14.6768C16.2854 14.6498 16.5371 14.8321 16.5671 15.083L17.824 25.6008C17.854 25.8518 17.6513 26.0778 17.3722 26.1048C17.214 26.1203 17.0562 26.1279 16.9003 26.1279ZM16.0612 14.8551C16.0501 14.8551 16.0393 14.8557 16.028 14.8567C13.7341 15.0783 12.0686 16.9367 12.3153 18.9995L12.7438 22.5862C12.9902 24.649 15.0565 26.1467 17.3507 25.9251C17.5193 25.9089 17.6419 25.7722 17.6239 25.6205L16.367 15.1027C16.3501 14.9607 16.2161 14.8551 16.0612 14.8551Z" fill="#00227B"/>
<g opacity="0.35">
<g opacity="0.35">
<g opacity="0.35">
<g opacity="0.35">
<path opacity="0.35" d="M17.3773 22.707L17.7256 25.625C17.7501 25.8267 17.5864 26.0077 17.3624 26.0294C16.1274 26.1483 14.9576 25.7835 14.089 25.1029C13.3046 24.4884 12.7657 23.6151 12.6454 22.6109L12.4648 21.0995C13.2912 22.361 14.8894 23.1408 16.6144 22.9744L17.0411 22.9331C17.1967 22.9179 17.3199 22.8275 17.3773 22.707Z" fill="#00227B"/>
</g>
</g>
</g>
</g>
<path d="M16.9027 26.5407C14.4612 26.541 12.3558 24.8806 12.0893 22.6491L11.6608 19.0624C11.3754 16.6738 13.3042 14.5217 15.9604 14.265C16.4911 14.2137 16.97 14.5605 17.0271 15.038L18.2839 25.5561C18.341 26.0339 17.9554 26.464 17.4241 26.5153C17.249 26.5326 17.0748 26.5407 16.9027 26.5407ZM15.9289 15.2848C13.9657 15.5467 12.5612 17.1644 12.775 18.955L13.2034 22.5417C13.4175 24.3323 15.1722 25.6446 17.1526 25.5255L15.9289 15.2848Z" fill="#00227B"/>
<path d="M35.9911 36.5492C47.0621 36.5492 56.0369 28.4784 56.0369 18.5226C56.0369 8.56688 47.0621 0.496132 35.9911 0.496132C24.9201 0.496132 15.9453 8.56688 15.9453 18.5226C15.9453 28.4784 24.9201 36.5492 35.9911 36.5492Z" fill="white"/>
<path d="M35.9673 36.6453C33.5095 36.6453 31.1085 36.249 28.8193 35.4645C26.3851 34.6305 24.1798 33.3947 22.2641 31.7922C20.3484 30.1894 18.8192 28.3003 17.7184 26.1773C16.5789 23.9791 15.9515 21.6253 15.8534 19.1812C15.7552 16.7371 16.1924 14.3487 17.1527 12.0824C18.0802 9.89344 19.4544 7.91031 21.2365 6.18755C23.0185 4.46479 25.1198 3.08936 27.4809 2.09949C29.9253 1.0748 32.5428 0.510584 35.2607 0.422311C37.9786 0.334038 40.6345 0.727206 43.1546 1.59081C45.5888 2.42482 47.7941 3.66064 49.7099 5.26317C51.6256 6.86597 53.1548 8.75506 54.2556 10.8781C55.395 13.0762 56.0224 15.43 56.1206 17.8741C56.2188 20.3183 55.7816 22.7066 54.8212 24.9729C53.8938 27.1619 52.5195 29.145 50.7372 30.8678C48.9549 32.5906 46.8542 33.9657 44.4933 34.9556C42.0489 35.9803 39.4315 36.5445 36.7136 36.6328C36.4639 36.6412 36.2152 36.6453 35.9673 36.6453ZM35.9962 0.591523C35.7538 0.591523 35.5121 0.595452 35.2677 0.60331C24.2771 0.960068 15.6582 9.29098 16.0546 19.1744C16.2466 23.9621 18.5005 28.3962 22.401 31.6594C26.1209 34.7717 30.9145 36.4638 35.9688 36.4641C36.214 36.4641 36.4593 36.4602 36.7057 36.452C42.0297 36.2794 46.9605 34.2525 50.5892 30.7449C54.218 27.2373 56.1107 22.6689 55.9188 17.8812C55.5314 8.2173 46.6642 0.591523 35.9962 0.591523Z" fill="#00227B"/>
<g opacity="0.35">
<g opacity="0.35">
<g opacity="0.35">
<g opacity="0.35">
<path opacity="0.35" d="M55.7311 15.3965C55.8913 16.2069 55.9894 17.0373 56.0235 17.8841C56.4211 27.8333 47.7763 36.1896 36.7126 36.5492C25.649 36.9068 16.3566 29.1328 15.9567 19.1839C15.945 18.8978 15.9409 18.6113 15.9447 18.3286C17.647 27.0543 26.2854 33.5346 36.4082 33.2064C47.1538 32.8572 55.6163 24.9653 55.7311 15.3965Z" fill="#00227B"/>
</g>
</g>
</g>
</g>
<path d="M35.9752 37.0616C33.4611 37.0616 31.0054 36.6561 28.6638 35.8538C26.1742 35.0006 23.9183 33.7368 21.9591 32.0976C20 30.4584 18.4358 28.5261 17.31 26.3546C16.1443 24.1061 15.5026 21.6984 15.4024 19.1988C15.3022 16.6991 15.7494 14.256 16.7318 11.9379C17.6805 9.69908 19.086 7.67037 20.9088 5.90859C22.7316 4.1468 24.8798 2.73993 27.2948 1.72781C29.7951 0.679534 32.4725 0.102487 35.2522 0.0123805C38.0322 -0.0777259 40.7486 0.324348 43.3265 1.20786C45.816 2.06099 48.072 3.32484 50.0311 4.96404C51.9903 6.60324 53.5544 8.53555 54.6802 10.707C55.8459 12.9555 56.4876 15.3632 56.5878 17.8629C56.688 20.3625 56.2409 22.8056 55.2584 25.1238C54.3097 27.3625 52.9043 29.3912 51.0815 31.153C49.2586 32.9148 47.1099 34.3214 44.6952 35.3338C42.1948 36.3821 39.5174 36.9591 36.7377 37.0492C36.4832 37.0574 36.2286 37.0616 35.9752 37.0616ZM36.0043 1.008C35.7675 1.008 35.5313 1.01193 35.2927 1.01953C24.5553 1.36791 16.135 9.50682 16.5224 19.1626C16.71 23.84 18.9121 28.1717 22.7226 31.36C26.3569 34.4005 31.0397 36.0539 35.9778 36.0539C36.2172 36.0539 36.4572 36.05 36.6978 36.0421C41.8992 35.8734 46.7161 33.8932 50.2615 30.4665C53.807 27.0398 55.656 22.5767 55.4681 17.8993C55.0892 8.45776 46.4263 1.008 36.0043 1.008Z" fill="#00227B"/>
<path d="M55.9753 18.3376C56.176 21.8604 55.0904 25.1898 53.0698 27.996C51.5549 30.0999 45.0544 33.9592 36.7815 34.4072C29.1107 34.8226 21.9187 31.4646 20.1728 29.511C17.8438 26.905 16.3859 23.6929 16.1852 20.1701C15.6542 10.8475 24.341 6.5724 35.3295 6.06634C46.3174 5.56028 55.4443 9.01497 55.9753 18.3376Z" fill="#3949AB"/>
<path d="M35.4664 34.7928C31.6521 34.7928 28.3347 33.9378 26.1326 33.174C23.3442 32.2069 20.8931 30.8556 19.8885 29.7314C17.4228 26.9726 16.0148 23.6735 15.8164 20.1911C15.6847 17.8803 16.1085 15.7835 17.0753 13.9588C17.9855 12.2416 19.3816 10.7538 21.2254 9.53627C24.5938 7.3119 29.4695 5.99357 35.3254 5.72403C41.1815 5.4545 46.1813 6.31785 49.7848 8.22108C51.757 9.26281 53.3151 10.6147 54.4155 12.2395C55.5847 13.9656 56.2444 16.0127 56.3758 18.3235C56.5742 21.8059 55.548 25.2169 53.4088 28.1878C52.5202 29.422 50.3126 30.935 47.6482 32.1357C45.3078 33.1905 41.5293 34.5015 36.8205 34.7564C36.3632 34.781 35.9111 34.7928 35.4664 34.7928ZM37.3932 6.36814C36.7299 6.36814 36.0542 6.38385 35.365 6.41555C29.6597 6.67827 24.9282 7.9505 21.6813 10.0945C18.0563 12.4883 16.3419 15.8736 16.5857 20.1557C16.7756 23.4918 18.1254 26.6531 20.4888 29.2976C21.1919 30.0845 23.1645 31.4025 26.4099 32.5281C28.7975 33.356 32.5335 34.2948 36.7745 34.0651C41.3531 33.8171 45.0276 32.5422 47.3036 31.5165C50.3536 30.1418 52.1508 28.6613 52.7631 27.8114C54.8137 24.9636 55.7973 21.6949 55.6074 18.3588C55.3636 14.0767 53.2734 10.8666 49.3953 8.8183C46.3413 7.20529 42.2211 6.36814 37.3932 6.36814Z" fill="#00227B"/>
<g opacity="0.5">
<g opacity="0.5">
<g opacity="0.5">
<g opacity="0.5">
<path d="M51.9914 17.6733C52.2416 15.9259 51.3029 14.3772 49.8949 14.2142C48.4869 14.0511 47.1427 15.3355 46.8925 17.083C46.6423 18.8304 47.5809 20.3791 48.9889 20.5421C50.3969 20.7052 51.7412 19.4208 51.9914 17.6733Z" fill="white"/>
</g>
</g>
</g>
</g>
<g opacity="0.5">
<g opacity="0.5">
<g opacity="0.5">
<g opacity="0.5">
<path d="M48.0018 24.1588C48.2388 23.3788 47.8275 22.5981 47.0832 22.4152C46.3388 22.2323 45.5432 22.7163 45.3062 23.4964C45.0691 24.2764 45.4804 25.0571 46.2248 25.24C46.9691 25.4229 47.7647 24.9388 48.0018 24.1588Z" fill="white"/>
</g>
</g>
</g>
</g>
<g opacity="0.35">
<path d="M51.6215 9.81967C54.1725 11.7947 55.7722 14.594 55.986 18.3381C56.1867 21.8617 55.1005 25.1909 53.0814 27.9971C51.5659 30.101 45.0648 33.9601 36.7919 34.409C33.871 34.568 31.0202 34.1788 28.5117 33.5274C38.6677 32.7808 46.5844 28.0468 48.4632 25.4374C51.0282 21.8759 52.4056 17.6498 52.1502 13.1795C52.0832 11.9846 51.9017 10.8658 51.6215 9.81967Z" fill="#00227B"/>
</g>
<path d="M17.242 12.6305C17.1289 12.6305 17.0153 12.5988 16.9181 12.5331C16.6891 12.378 16.6364 12.0907 16.7922 11.8788C17.6241 10.6498 18.6864 9.52658 19.9494 8.54065C21.1792 7.58091 22.6093 6.74297 24.2 6.05015C25.7575 5.37199 27.4789 4.82874 29.3163 4.43531C31.1371 4.04554 33.0808 3.80089 35.0941 3.70817C37.0743 3.61702 39.0145 3.67857 40.8609 3.89074C42.7242 4.105 44.4957 4.47355 46.126 4.98564C47.7942 5.50977 49.3205 6.18662 50.6627 6.99731C52.0425 7.8308 53.2359 8.81097 54.2105 9.91084C54.3806 10.0803 54.3981 10.3399 54.2387 10.5285C54.0587 10.7417 53.7205 10.7831 53.4834 10.6212L53.4269 10.5835L53.3844 10.5348C49.7758 6.44436 43.1291 4.30905 35.1492 4.67655C27.125 5.04614 20.767 7.85935 17.7051 12.3948L17.6911 12.4155L17.6728 12.4372C17.5673 12.5637 17.4057 12.6305 17.242 12.6305Z" fill="#00227B"/>
<g opacity="0.5">
<g opacity="0.5">
<g opacity="0.5">
<g opacity="0.5">
<path d="M20.9627 25.5171C20.9627 25.5171 17.2282 16.4682 22.5312 12.5494C27.8342 8.63053 35.7649 8.28033 35.6056 8.74605C35.6056 8.74605 26.9356 11.0616 23.8559 17.4607C21.4812 22.3953 20.9627 25.5171 20.9627 25.5171Z" fill="white"/>
</g>
</g>
</g>
</g>
<path d="M54.1562 69.5433H18.6039C17.4528 69.5433 16.5195 68.7041 16.5195 67.6689C16.5195 67.0725 17.0572 66.589 17.7205 66.589H55.0397C55.7029 66.589 56.2406 67.0725 56.2406 67.6689C56.2406 68.7044 55.3074 69.5433 54.1562 69.5433Z" fill="#E6E9FA"/>
<g opacity="0.3">
<g opacity="0.3">
<g opacity="0.3">
<g opacity="0.3">
<path opacity="0.3" d="M56.2401 67.6692C56.2401 67.874 56.2031 68.0707 56.1355 68.2554C55.9488 67.8777 55.5288 67.6157 55.04 67.6157H17.7208C17.3896 67.6157 17.089 67.736 16.8717 67.9327C16.7683 68.0257 16.6835 68.1341 16.6241 68.2557C16.5565 68.071 16.5195 67.8745 16.5195 67.6694C16.5195 67.3716 16.6532 67.1013 16.872 66.9059C17.0893 66.7095 17.3899 66.589 17.7211 66.589H55.04C55.7036 66.5887 56.2401 67.0722 56.2401 67.6692Z" fill="white"/>
</g>
</g>
</g>
</g>
<g opacity="0.35">
<g opacity="0.35">
<g opacity="0.35">
<g opacity="0.35">
<path opacity="0.35" d="M56.2403 67.6447C56.2403 68.1618 56.0073 68.6312 55.6295 68.9693C55.2532 69.3088 54.7312 69.5186 54.1565 69.5186H18.6048C17.4537 69.5186 16.5195 68.6799 16.5195 67.6447C16.5195 67.4456 16.5792 67.2586 16.685 67.0978C17.0001 67.7686 17.742 68.2404 18.6045 68.2404H54.1562C54.7312 68.2404 55.2532 68.0308 55.6292 67.6911C55.8174 67.5219 55.9697 67.3207 56.0743 67.0978C56.1809 67.2586 56.2403 67.4456 56.2403 67.6447Z" fill="#00227B"/>
</g>
</g>
</g>
</g>
<path d="M54.1705 70.0026H18.6181C17.1766 70.0026 16.0039 68.948 16.0039 67.6517C16.0039 66.7936 16.7805 66.0953 17.7347 66.0953H55.0539C56.0081 66.0953 56.7847 66.7936 56.7847 67.6517C56.7847 68.9478 55.612 70.0026 54.1705 70.0026ZM17.7344 67.0482C17.3645 67.0482 17.0633 67.3188 17.0633 67.6517C17.0633 68.4226 17.7606 69.0497 18.6178 69.0497H54.1705C55.0277 69.0497 55.725 68.4226 55.725 67.6517C55.725 67.319 55.4241 67.0482 55.0539 67.0482H17.7344Z" fill="#00227B"/>
<path d="M58.3314 45.4593L54.8542 66.5617H17.9378L17.812 65.7982L14.4588 45.4593C14.349 44.7911 14.9251 44.1918 15.6749 44.1918H57.1151C57.8666 44.1918 58.4413 44.7911 58.3314 45.4593Z" fill="#FF66AC"/>
<path d="M58.3314 45.4593L54.8542 66.5617H17.9378L17.812 65.7982L14.4588 45.4593C14.349 44.7911 14.9251 44.1918 15.6749 44.1918H57.1151C57.8666 44.1918 58.4413 44.7911 58.3314 45.4593Z" fill="#E6E9FA"/>
<g opacity="0.5">
<g opacity="0.5">
<g opacity="0.5">
<g opacity="0.5">
<path opacity="0.5" d="M15.7692 46.769C15.6594 46.1008 16.2356 45.5015 16.9853 45.5015H58.3242L58.3312 45.4593C58.441 44.7911 57.8663 44.1918 57.1151 44.1918H15.6749C14.9251 44.1918 14.349 44.7911 14.4588 45.4593L17.8117 65.7982L17.9375 66.5617H19.0324L15.7692 46.769Z" fill="white"/>
</g>
</g>
</g>
</g>
<g opacity="0.35">
<g opacity="0.35">
<g opacity="0.35">
<g opacity="0.35">
<path opacity="0.35" d="M55.9536 44.1941H53.0437C54.1471 47.8293 53.5383 56.0379 46.42 60.3279C37.4842 65.7133 21.38 65.679 17.9609 65.8005L18.0868 66.564H53.6924L57.1697 45.4616C57.2795 44.7934 56.7048 44.1941 55.9536 44.1941Z" fill="#00227B"/>
</g>
</g>
</g>
</g>
<path d="M55.3045 67.0542H17.4744L13.9293 45.5442C13.8541 45.0887 14.0029 44.6277 14.3373 44.2791C14.6717 43.9304 15.1573 43.7306 15.6691 43.7306H57.1099C57.6219 43.7306 58.1072 43.9304 58.4416 44.2791C58.776 44.6277 58.9248 45.0887 58.8497 45.5442L55.3045 67.0542ZM18.3887 66.101H54.3902L57.8014 45.4043C57.8317 45.2207 57.774 45.0421 57.6391 44.9014C57.5043 44.7608 57.3164 44.6835 57.1099 44.6835H15.6691C15.4625 44.6835 15.2747 44.761 15.1398 44.9014C15.0049 45.0421 14.9473 45.2207 14.9776 45.4043L18.3887 66.101Z" fill="#00227B"/>
<g opacity="0.3">
<g opacity="0.3">
<g opacity="0.3">
<g opacity="0.3">
<path opacity="0.3" d="M20.8635 61.6379C19.463 58.8619 18.4432 54.1233 18.673 51.3344C18.9029 48.5456 20.7015 49.399 21.259 52.9713C22.7425 62.4785 21.4885 62.8774 20.8635 61.6379Z" fill="white"/>
</g>
</g>
</g>
</g>
<path d="M41.202 53.0075C41.2472 52.6512 41.2996 52.2911 41.2218 51.9288C41.1871 51.8895 41.1554 51.8492 41.1207 51.8099C41.006 51.7727 40.8944 51.7242 40.775 51.6973C39.9349 51.5021 39.0832 51.4248 38.2181 51.4919C37.09 51.5794 36.0545 51.8924 35.1641 52.5373C34.8416 52.7699 34.5477 53.0326 34.2468 53.2875C34.1662 53.3566 34.1041 53.3854 33.9908 53.3388C33.7243 53.2299 33.4371 53.1811 33.1455 53.168C32.3634 53.1361 31.6655 53.3634 31.0145 53.7309C30.309 54.1307 29.7405 54.6647 29.2109 55.2366C28.9855 55.4789 29.0731 55.7489 29.4087 55.8508C29.6204 55.9129 29.8322 55.9739 30.044 56.0363C30.5514 56.184 31.0576 56.3304 31.5636 56.4779C31.5624 56.492 31.5639 56.4994 31.5615 56.5064C31.5575 56.5153 31.5531 56.5256 31.5461 56.5342C31.3349 56.7783 31.3862 57.0041 31.6087 57.2163C31.6326 57.2399 31.6533 57.2679 31.6743 57.2933C31.7908 57.4311 31.9099 57.5704 32.0334 57.714C31.8648 57.831 31.699 57.9306 31.5525 58.0508C31.4785 58.1113 31.4133 58.1993 31.3853 58.2866C31.3378 58.4272 31.4188 58.571 31.558 58.6449C31.7057 58.7248 31.8578 58.7214 31.9952 58.6323C32.1697 58.5207 32.3363 58.3997 32.5137 58.2779C32.6812 58.4765 32.84 58.6643 32.9993 58.8497C33.1819 59.0611 33.3078 59.0973 33.5909 59.0268C33.6424 59.0124 33.6934 59.0024 33.7543 58.9891C33.7584 59.0436 33.763 59.0873 33.7656 59.1282C33.8018 59.7862 33.835 60.4452 33.8752 61.1013C33.8935 61.4125 34.1667 61.5595 34.4793 61.4261C34.7615 61.3064 35.0435 61.1797 35.3202 61.0448C35.9578 60.7328 36.538 60.3509 37.0009 59.843C37.5802 59.2039 37.9009 58.4901 37.7509 57.6466C37.7445 57.6134 37.7754 57.5565 37.8074 57.5395C38.0917 57.3748 38.3836 57.2205 38.6682 57.0544C39.3113 56.6775 39.8283 56.1877 40.2326 55.6025C40.782 54.807 41.0852 53.9342 41.202 53.0075ZM31.9821 55.8547C31.3964 55.6832 30.7891 55.505 30.1651 55.3225C30.8097 54.7064 31.4919 54.1684 32.4106 53.9413C32.8076 53.843 33.2664 53.8514 33.5373 53.9504C33.0229 54.5817 32.5073 55.213 31.9821 55.8547ZM36.9091 58.5624C36.7603 58.9896 36.476 59.3375 36.1259 59.6476C35.6907 60.0287 35.1842 60.3132 34.6366 60.5725C34.6037 59.9674 34.5699 59.3754 34.5367 58.7958C35.3648 58.5061 36.1745 58.2234 36.9884 57.939C37.0198 58.1407 36.9814 58.3544 36.9091 58.5624ZM39.967 54.5112C39.7005 55.0768 39.3509 55.5917 38.8523 56.0182C38.4675 56.3453 38.0311 56.6078 37.5715 56.8412C36.3254 57.4738 34.9899 57.9099 33.6244 58.2787C33.5577 58.296 33.5169 58.2928 33.4729 58.2378C33.3777 58.116 33.2708 57.9987 33.17 57.8785C33.1633 57.8717 33.1609 57.8604 33.1513 57.8389C33.1863 57.8138 33.2236 57.7889 33.2611 57.7629C34.0403 57.2249 34.8233 56.6887 35.6027 56.1497C35.8279 55.9959 35.8378 55.7316 35.6292 55.5792C35.4836 55.472 35.2917 55.4736 35.1236 55.5873C34.6546 55.909 34.1868 56.2306 33.719 56.5536C33.3701 56.7935 33.024 57.0324 32.6617 57.2823C32.5373 57.1361 32.4173 57.0028 32.309 56.8624C32.2906 56.8373 32.3092 56.7739 32.3343 56.7427C32.7497 56.1853 33.1615 55.625 33.5938 55.0773C34.0214 54.5335 34.5075 54.0311 35.0423 53.5701C35.5436 53.1345 36.0871 52.75 36.744 52.5208C37.1652 52.3733 37.5998 52.273 38.0486 52.2298C38.0894 52.2245 38.1485 52.2612 38.1774 52.295C38.6338 52.8257 39.0847 53.3572 39.5371 53.8897C39.6728 54.0481 39.8068 54.2098 39.9466 54.3664C39.9885 54.4135 39.9938 54.4539 39.967 54.5112ZM40.2376 53.7689C39.7867 53.2377 39.3463 52.7209 38.9053 52.2017C38.9059 52.19 38.9096 52.1761 38.9117 52.1632C39.4252 52.2185 39.9399 52.2751 40.4598 52.3311C40.4502 52.8348 40.3675 53.2961 40.2376 53.7689Z" fill="#00227B"/>
<path d="M39.9419 54.3562C39.8018 54.1996 39.6681 54.038 39.5324 53.8795C39.0803 53.347 38.6291 52.8155 38.1727 52.2848C38.1438 52.251 38.0847 52.2143 38.0439 52.2196C37.5951 52.2628 37.1605 52.3631 36.7393 52.5106C36.0822 52.7398 35.5389 53.1243 35.0376 53.5599C34.5028 54.0209 34.0167 54.5233 33.5891 55.0671C33.1568 55.6151 32.745 56.1754 32.3296 56.7325C32.3046 56.7637 32.2859 56.8271 32.3043 56.8522C32.4123 56.9926 32.5323 57.1259 32.657 57.2721C33.0194 57.0222 33.3654 56.783 33.7143 56.5434C34.1821 56.2204 34.6499 55.8985 35.1189 55.5771C35.287 55.4634 35.4786 55.4621 35.6246 55.569C35.8331 55.7217 35.8235 55.986 35.598 56.1395C34.8186 56.6785 34.0356 57.2147 33.2565 57.7527C33.2189 57.7787 33.1813 57.8036 33.1466 57.8287C33.1563 57.8504 33.1586 57.8614 33.1653 57.8683C33.2661 57.9885 33.373 58.1058 33.4682 58.2276C33.5122 58.2826 33.553 58.2858 33.6197 58.2685C34.9852 57.8997 36.3207 57.4636 37.5668 56.831C38.0262 56.5979 38.4628 56.3351 38.8476 56.008C39.3459 55.5815 39.6958 55.0666 39.9623 54.5011C39.9885 54.444 39.9833 54.4036 39.9419 54.3562ZM38.5743 55.1672C37.9787 55.5708 37.1357 55.4721 36.6883 54.9437C36.238 54.4162 36.3516 53.6587 36.9417 53.2495C37.5211 52.8482 38.3643 52.952 38.8161 53.4798C39.2626 54.0044 39.1537 54.7732 38.5743 55.1672Z" fill="white"/>
<path d="M40.2347 53.7443C39.7835 53.2139 39.343 52.6966 38.9023 52.1774C38.9038 52.1651 38.9067 52.1523 38.9088 52.1389C39.4223 52.1947 39.9373 52.251 40.4578 52.3071C40.4479 52.81 40.3643 53.2718 40.2347 53.7443Z" fill="#DB2C2C"/>
<path d="M33.5485 53.9363C33.0335 54.5668 32.518 55.1986 31.9934 55.8409C31.4067 55.6682 30.7994 55.4906 30.1758 55.3083C30.821 54.6915 31.5028 54.1535 32.4215 53.9269C32.8186 53.8284 33.2767 53.8371 33.5485 53.9363Z" fill="#DB2C2C"/>
<path d="M36.1375 59.6307C35.7026 60.0121 35.1966 60.2968 34.6484 60.5556C34.6152 59.9511 34.5817 59.3591 34.5488 58.7789C35.3769 58.4895 36.1864 58.2071 37.0014 57.9219C37.0326 58.1241 36.9933 58.3373 36.9219 58.5461C36.7731 58.9733 36.4888 59.3209 36.1375 59.6307Z" fill="#DB2C2C"/>
<path d="M38.8389 53.4742C38.3874 52.9464 37.5439 52.8429 36.9645 53.2439C36.3744 53.6534 36.2608 54.4106 36.7111 54.9382C37.1585 55.4665 38.0014 55.5652 38.5971 55.1616C39.1768 54.7676 39.2857 53.9988 38.8389 53.4742ZM38.1957 54.716C37.894 54.9217 37.4506 54.8674 37.2156 54.5963C36.9724 54.3168 37.0388 53.9061 37.3606 53.6913C37.6621 53.4881 38.1139 53.547 38.3408 53.8194C38.5779 54.1028 38.5126 54.5007 38.1957 54.716Z" fill="#00227B"/>
<path d="M38.1855 54.7321C37.8837 54.9377 37.4404 54.8835 37.2047 54.6118C36.9627 54.3329 37.0282 53.9221 37.3501 53.7074C37.6521 53.5046 38.1033 53.5628 38.3302 53.8349C38.5674 54.1186 38.503 54.517 38.1855 54.7321Z" fill="#22A7F0"/>
<path d="M58.1416 46.5787C58.1416 46.5787 55.2806 45.3578 52.5939 46.453C50.021 47.5018 48.2008 54.9686 51.5342 56.86C53.5915 58.0275 54.992 56.9962 56.1559 57.299C57.8823 57.748 61.4243 50.0599 58.1416 46.5787Z" fill="white"/>
<g opacity="0.35">
<path d="M59.4315 51.4396C59.0925 54.5692 57.2551 57.5868 56.1555 57.3007C54.991 56.9982 53.5908 58.0297 51.5335 56.8622C49.9411 55.958 49.5251 53.7829 49.8059 51.6408C49.9952 52.8905 50.5318 53.9613 51.5335 54.5297C53.5908 55.6958 54.9607 55.1539 56.1555 54.9682C57.6326 54.7382 58.8367 53.2873 59.4315 51.4396Z" fill="#00227B"/>
</g>
<path d="M53.6422 57.9112C52.9481 57.9112 52.1447 57.7747 51.2496 57.2668C50.4483 56.8121 49.8696 56.0763 49.5296 55.0799C49.2442 54.2438 49.1376 53.2249 49.2209 52.1334C49.3196 50.8407 49.6732 49.5146 50.2159 48.3992C50.6307 47.5471 51.3417 46.4431 52.3731 46.0227C55.2506 44.8497 58.2409 46.0981 58.3667 46.1518L58.4699 46.1958L58.5435 46.2741C60.046 47.8672 60.1328 50.0683 59.9408 51.6339C59.7247 53.398 59.0323 55.2693 58.1337 56.5177C57.2337 57.7679 56.4801 57.8837 56.0065 57.7606C55.6992 57.6807 55.3109 57.7365 54.8612 57.8012C54.5058 57.8525 54.0975 57.9112 53.6422 57.9112ZM55.0412 46.4758C54.2358 46.4758 53.4893 46.6144 52.8112 46.891C52.2534 47.1184 51.6612 47.8075 51.1873 48.7817C50.6991 49.7843 50.3679 51.0299 50.2785 52.1991C50.1206 54.2637 50.6808 55.8173 51.8153 56.4611C52.9592 57.1102 53.8414 56.9831 54.6943 56.8603C55.2457 56.7809 55.7665 56.706 56.3016 56.8451C56.363 56.8548 56.804 56.7018 57.4259 55.7329C58.8762 53.4737 59.796 49.207 57.8119 46.9735C57.587 46.8894 57.0082 46.6917 56.2509 46.5733C55.8347 46.5083 55.4309 46.4758 55.0412 46.4758Z" fill="#00227B"/>
</svg>
